<svg id="Layer_1" enable-background="new 0 0 256 256" height="512" viewBox="0 0 256 256" width="512" xmlns="http://www.w3.org/2000/svg"><g><path d="m29.619 181.632c-7.724 0-14.009-6.285-14.009-14.009v-126.891c0-7.724 6.285-14.009 14.009-14.009h196.762c7.724 0 14.009 6.285 14.009 14.009v126.892c0 7.724-6.285 14.009-14.009 14.009h-196.762z" fill="#f46275"/><path d="m231.769 155.322c0 2.963-2.425 5.388-5.388 5.388h-196.762c-2.963 0-5.388-2.425-5.388-5.388v-114.591c0-2.963 2.425-5.388 5.388-5.388h196.762c2.963 0 5.388 2.425 5.388 5.388z" fill="#63bce7"/><path d="m33.991 155.322v-114.591c0-2.963 2.425-5.388 5.388-5.388h-9.76c-2.963 0-5.388 2.425-5.388 5.388v114.59c0 2.963 2.425 5.388 5.388 5.388h9.76c-2.964.001-5.388-2.424-5.388-5.387z" fill="#6377e7"/><path d="m222.009 155.322v-114.591c0-2.963-2.425-5.388-5.388-5.388h9.76c2.963 0 5.388 2.425 5.388 5.388v114.59c0 2.963-2.425 5.388-5.388 5.388h-9.76c2.964.001 5.388-2.424 5.388-5.387z" fill="#63e2e7"/><path d="m88.847 204.348h78.305v9.429h-78.305z" fill="#f46275"/><path d="m99.983 181.632h56.035v22.716h-56.035z" fill="#9e9e9e"/><path d="m88.847 204.348h9.76v9.429h-9.76z" fill="#f43075"/><path d="m99.983 181.632h9.76v22.716h-9.76z" fill="#707070"/><circle cx="128" cy="171.171" fill="#f8af23" r="4.613"/><g><path d="m160.724 88.049c0-18.073-14.651-32.724-32.724-32.724s-32.724 14.65-32.724 32.724c0 9.569 4.109 18.178 10.656 24.161v14.979c0 12.188 9.88 22.068 22.068 22.068 12.188 0 22.068-9.88 22.068-22.068v-14.979c6.548-5.984 10.656-14.592 10.656-24.161z" fill="#f8af23"/><path d="m105.932 127.189c0 12.188 9.88 22.068 22.068 22.068 12.188 0 22.068-9.88 22.068-22.068v-2.925h-44.136z" fill="#9e9e9e"/><g><circle cx="128" cy="89.073" fill="#f8af23" r="13.218"/><g><path d="m134.337 89.065v4.349c0 .339-.127.633-.381.882s-.556.374-.904.374h-3.826v3.064c0 .349-.125.645-.373.889-.249.244-.543.366-.882.366-.358 0-.663-.122-.912-.366s-.374-.54-.374-.889v-3.094h-3.796c-.339 0-.633-.122-.882-.366s-.374-.54-.374-.889.122-.645.366-.889.54-.366.889-.366h8.877v-1.808h-8.847c-.349 0-.645-.12-.889-.359-.245-.239-.366-.538-.366-.897v-4.334c0-.349.122-.645.366-.889s.54-.366.889-.366h3.766v-3.064c0-.339.117-.633.351-.882s.55-.373.949-.373c.339 0 .63.122.874.366s.366.541.366.889v3.064h3.856c.349 0 .65.125.904.373.254.249.381.543.381.882 0 .349-.127.65-.381.904s-.556.381-.904.381h-8.877v1.793h8.847c.349 0 .65.125.904.374.256.249.383.542.383.881z" fill="#321f7a"/></g></g></g><g fill="#f46275"><g><path d="m43.244 126.576h9.737v22.681h-9.737z"/><path d="m62.459 122.557h9.737v26.699h-9.737z"/><path d="m81.674 118.306h9.737v30.95h-9.737z"/></g><g><path d="m164.589 126.576h9.737v22.681h-9.737z"/><path d="m183.805 122.557h9.737v26.699h-9.737z"/><path d="m203.02 118.306h9.737v30.95h-9.737z"/></g></g><g><g><path d="m62.875 64.75v20.531h-20.531c0 11.339 9.192 20.531 20.531 20.531s20.531-9.192 20.531-20.531-9.192-20.531-20.531-20.531z" fill="#f8af23"/><path d="m62.875 64.75c-11.339 0-20.531 9.192-20.531 20.531h20.531z" fill="#f46275"/></g><g><path d="m193.125 64.75v20.531h-20.531c0 11.339 9.192 20.531 20.531 20.531s20.531-9.192 20.531-20.531-9.192-20.531-20.531-20.531z" fill="#f8af23"/><path d="m193.125 64.75c-11.339 0-20.531 9.192-20.531 20.531h20.531z" fill="#f46275"/><g fill="#321f7a"><path d="m233.269 155.321v-114.59c0-3.798-3.09-6.888-6.888-6.888h-196.762c-3.798 0-6.888 3.09-6.888 6.888v114.59c0 3.799 3.09 6.889 6.888 6.889h196.762c3.798 0 6.888-3.09 6.888-6.889zm-207.538 0v-114.59c0-2.144 1.744-3.888 3.888-3.888h196.762c2.144 0 3.888 1.744 3.888 3.888v114.59c0 2.145-1.744 3.889-3.888 3.889h-196.762c-2.144 0-3.888-1.744-3.888-3.889z"/><path d="m128 165.058c-3.371 0-6.113 2.742-6.113 6.113s2.742 6.113 6.113 6.113 6.113-2.742 6.113-6.113-2.742-6.113-6.113-6.113zm0 9.226c-1.717 0-3.113-1.396-3.113-3.113s1.396-3.113 3.113-3.113 3.113 1.396 3.113 3.113-1.396 3.113-3.113 3.113z"/><path d="m36.875 40.592c-2.413 0-4.375 1.963-4.375 4.375s1.962 4.375 4.375 4.375 4.375-1.963 4.375-4.375-1.962-4.375-4.375-4.375zm0 5.75c-.758 0-1.375-.617-1.375-1.375s.617-1.375 1.375-1.375 1.375.617 1.375 1.375-.617 1.375-1.375 1.375z"/><path d="m52.209 49.342c2.413 0 4.375-1.963 4.375-4.375s-1.962-4.375-4.375-4.375-4.375 1.963-4.375 4.375 1.962 4.375 4.375 4.375zm0-5.75c.758 0 1.375.617 1.375 1.375s-.617 1.375-1.375 1.375-1.375-.617-1.375-1.375.617-1.375 1.375-1.375z"/><path d="m67.542 49.342c2.413 0 4.375-1.963 4.375-4.375s-1.962-4.375-4.375-4.375-4.375 1.963-4.375 4.375 1.963 4.375 4.375 4.375zm0-5.75c.758 0 1.375.617 1.375 1.375s-.617 1.375-1.375 1.375-1.375-.617-1.375-1.375.617-1.375 1.375-1.375z"/><path d="m80 46.467h118.25c.829 0 1.5-.672 1.5-1.5s-.671-1.5-1.5-1.5h-118.25c-.829 0-1.5.672-1.5 1.5s.671 1.5 1.5 1.5z"/><path d="m27.323 227.777h-18.003c-.829 0-1.5.672-1.5 1.5s.671 1.5 1.5 1.5h18.003c.829 0 1.5-.672 1.5-1.5s-.671-1.5-1.5-1.5z"/><path d="m246.68 227.777h-18.003c-.829 0-1.5.672-1.5 1.5s.671 1.5 1.5 1.5h18.003c.829 0 1.5-.672 1.5-1.5s-.671-1.5-1.5-1.5z"/><path d="m218.479 227.777h-180.958c-.829 0-1.5.672-1.5 1.5s.671 1.5 1.5 1.5h180.959c.829 0 1.5-.672 1.5-1.5s-.672-1.5-1.501-1.5z"/><path d="m9.32 215.277h79.527 78.306 79.527c.829 0 1.5-.672 1.5-1.5s-.671-1.5-1.5-1.5h-78.027v-7.929c0-.828-.671-1.5-1.5-1.5h-9.635v-19.716h68.864c8.551 0 15.508-6.957 15.508-15.509v-126.892c0-8.552-6.957-15.509-15.508-15.509h-196.763c-8.551 0-15.508 6.957-15.508 15.509v126.893c0 8.552 6.957 15.509 15.508 15.509h68.864v19.716h-9.635c-.829 0-1.5.672-1.5 1.5v7.929h-78.028c-.829 0-1.5.672-1.5 1.5s.671 1.499 1.5 1.499zm7.79-47.653v-126.893c0-6.897 5.611-12.509 12.508-12.509h196.763c6.897 0 12.508 5.611 12.508 12.509v126.893c0 6.897-5.611 12.509-12.508 12.509h-70.364-56.035-70.363c-6.897 0-12.509-5.612-12.509-12.509zm84.372 15.509h53.035v19.716h-53.035zm-11.135 22.716h9.635 56.035 9.635v6.429h-75.305z"/><path d="m128 53.824c-18.872 0-34.225 15.354-34.225 34.225 0 9.364 3.875 18.368 10.657 24.813v11.401 2.925c0 12.996 10.572 23.568 23.568 23.568s23.568-10.572 23.568-23.568v-2.925-11.401c6.781-6.445 10.657-15.449 10.657-24.813 0-18.871-15.353-34.225-34.225-34.225zm20.568 73.364c0 11.342-9.227 20.568-20.568 20.568s-20.568-9.227-20.568-20.568v-1.425h41.136zm-20.568-26.398c-6.461 0-11.718-5.257-11.718-11.718s5.257-11.717 11.718-11.717 11.718 5.256 11.718 11.717-5.257 11.718-11.718 11.718zm21.056 10.313c-.311.284-.488.687-.488 1.107v10.554h-19.068v-19.05c7.413-.754 13.218-7.033 13.218-14.642 0-8.115-6.603-14.717-14.718-14.717s-14.718 6.602-14.718 14.717c0 7.609 5.804 13.888 13.218 14.642v19.05h-19.068v-10.554c0-.421-.177-.823-.488-1.107-6.462-5.905-10.168-14.308-10.168-23.054 0-17.218 14.007-31.225 31.225-31.225s31.225 14.007 31.225 31.225c-.001 8.746-3.708 17.148-10.17 23.054z"/><path d="m52.98 125.076h-9.736c-.829 0-1.5.672-1.5 1.5v22.681c0 .828.671 1.5 1.5 1.5h9.736c.829 0 1.5-.672 1.5-1.5v-22.681c0-.828-.671-1.5-1.5-1.5zm-1.5 22.681h-6.736v-19.681h6.736z"/><path d="m72.195 121.058h-9.736c-.829 0-1.5.672-1.5 1.5v26.699c0 .828.671 1.5 1.5 1.5h9.736c.829 0 1.5-.672 1.5-1.5v-26.699c0-.829-.671-1.5-1.5-1.5zm-1.5 26.699h-6.736v-23.699h6.736z"/><path d="m91.411 116.807h-9.737c-.829 0-1.5.672-1.5 1.5v30.95c0 .828.671 1.5 1.5 1.5h9.737c.829 0 1.5-.672 1.5-1.5v-30.95c0-.828-.672-1.5-1.5-1.5zm-1.5 30.95h-6.737v-27.95h6.737z"/><path d="m174.326 125.076h-9.737c-.829 0-1.5.672-1.5 1.5v22.681c0 .828.671 1.5 1.5 1.5h9.737c.829 0 1.5-.672 1.5-1.5v-22.681c0-.828-.671-1.5-1.5-1.5zm-1.5 22.681h-6.737v-19.681h6.737z"/><path d="m193.541 121.058h-9.736c-.829 0-1.5.672-1.5 1.5v26.699c0 .828.671 1.5 1.5 1.5h9.736c.829 0 1.5-.672 1.5-1.5v-26.699c0-.829-.671-1.5-1.5-1.5zm-1.5 26.699h-6.736v-23.699h6.736z"/><path d="m212.756 116.807h-9.736c-.829 0-1.5.672-1.5 1.5v30.95c0 .828.671 1.5 1.5 1.5h9.736c.829 0 1.5-.672 1.5-1.5v-30.95c0-.828-.671-1.5-1.5-1.5zm-1.5 30.95h-6.736v-27.95h6.736z"/><path d="m62.875 63.25c-12.148 0-22.031 9.883-22.031 22.031s9.883 22.031 22.031 22.031 22.031-9.883 22.031-22.031-9.883-22.031-22.031-22.031zm-1.5 3.059v17.473h-17.473c.729-9.302 8.172-16.745 17.473-17.473zm1.5 38.003c-9.989 0-18.206-7.735-18.973-17.531h18.973c.829 0 1.5-.672 1.5-1.5v-18.972c9.795.768 17.531 8.983 17.531 18.973 0 10.493-8.537 19.03-19.031 19.03z"/><path d="m193.125 63.25c-12.148 0-22.031 9.883-22.031 22.031s9.883 22.031 22.031 22.031 22.031-9.883 22.031-22.031-9.883-22.031-22.031-22.031zm-1.5 3.059v17.473h-17.473c.729-9.302 8.172-16.745 17.473-17.473zm1.5 38.003c-9.989 0-18.206-7.735-18.973-17.531h18.973c.829 0 1.5-.672 1.5-1.5v-18.972c9.795.768 17.531 8.983 17.531 18.973 0 10.493-8.537 19.03-19.031 19.03z"/></g></g></g></g></svg>